<?xml version="1.0" encoding="UTF-8" standalone="no"?>
<!DOCTYPE svg PUBLIC "-//W3C//DTD SVG 1.1//EN" "http://www.w3.org/Graphics/SVG/1.1/DTD/svg11.dtd">
<svg width="100%" height="100%" viewBox="0 0 1097 1000" version="1.1" xmlns="http://www.w3.org/2000/svg" xmlns:xlink="http://www.w3.org/1999/xlink" xml:space="preserve" xmlns:serif="http://www.serif.com/" style="fill-rule:evenodd;clip-rule:evenodd;stroke-linejoin:round;stroke-miterlimit:2;">
    <g transform="matrix(1,0,0,1,-365,-200)">
        <g transform="matrix(1,0,0,1,-120,-473)">
            <g>
                <path d="M1304,909L1231,956L910,763L563,968L562,1376L910,1589L1231,1395L1302,1440L911,1673L485,1418L486,924L910,673" style="fill:rgb(6,208,239);"/>
                <path d="M1161,994L1088,1040L910,931L706,1052L706,1298L910,1424L1091,1313L1163,1357L910,1509L630,1339L630,1009L909,842L1161,994Z" style="fill:rgb(6,208,239);"/>
                <path d="M1025,1078L953,1123L911,1095L846,1135L846,1216.415L912,1255L955,1229L1025,1272L909,1344L772,1262L773,1091L908,1007L1025,1078Z" style="fill:rgb(6,208,239);"/>
            </g>
            <g transform="matrix(5.073407,-0,-0,5.022798,-4064.325226,-8471.353129)">
                <g transform="matrix(50,0,0,50,996.730748,1939.974755)">
                    <path d="M0.249,-0.132L0.36,-0.411L0.509,-0.411L0.227,0.208L0.075,0.208L0.17,-0L-0.002,-0.411L0.15,-0.411L0.249,-0.132Z" style="fill:rgb(6,208,239);fill-rule:nonzero;"/>
                </g>
                <g transform="matrix(50,0,0,50,1022.460441,1939.974755)">
                    <rect x="0.042" y="-0.688" width="0.152" height="0.688" style="fill:rgb(6,208,239);fill-rule:nonzero;"/>
                </g>
                <g transform="matrix(50,0,0,50,1034.949174,1939.974755)">
                    <path d="M0.163,-0.173C0.164,-0.158 0.169,-0.145 0.177,-0.134C0.185,-0.122 0.197,-0.114 0.212,-0.107C0.226,-0.101 0.244,-0.097 0.265,-0.098C0.284,-0.097 0.301,-0.099 0.317,-0.103C0.332,-0.107 0.346,-0.112 0.357,-0.118C0.369,-0.124 0.378,-0.131 0.384,-0.137L0.443,-0.043C0.434,-0.034 0.423,-0.025 0.408,-0.017C0.393,-0.008 0.373,-0.002 0.348,0.004C0.323,0.009 0.292,0.012 0.255,0.012C0.209,0.012 0.169,0.004 0.133,-0.013C0.098,-0.03 0.07,-0.056 0.05,-0.089C0.03,-0.122 0.02,-0.162 0.02,-0.21C0.02,-0.25 0.028,-0.286 0.046,-0.318C0.064,-0.35 0.089,-0.376 0.122,-0.394C0.155,-0.413 0.196,-0.423 0.242,-0.422C0.287,-0.423 0.326,-0.414 0.359,-0.398C0.391,-0.382 0.417,-0.357 0.434,-0.325C0.452,-0.293 0.461,-0.253 0.461,-0.205C0.461,-0.203 0.461,-0.197 0.461,-0.189C0.461,-0.181 0.46,-0.176 0.46,-0.173L0.163,-0.173ZM0.319,-0.253C0.318,-0.263 0.315,-0.274 0.31,-0.285C0.305,-0.295 0.297,-0.304 0.286,-0.31C0.275,-0.317 0.262,-0.321 0.245,-0.321C0.228,-0.321 0.214,-0.317 0.203,-0.311C0.191,-0.304 0.183,-0.296 0.177,-0.286C0.171,-0.275 0.167,-0.264 0.166,-0.253L0.319,-0.253Z" style="fill:rgb(6,208,239);fill-rule:nonzero;"/>
                </g>
                <g transform="matrix(50,0,0,50,1059.849261,1939.974755)">
                    <path d="M0.324,-0.422C0.353,-0.423 0.381,-0.417 0.409,-0.405C0.436,-0.393 0.458,-0.375 0.476,-0.35C0.494,-0.324 0.503,-0.291 0.503,-0.25L0.503,-0L0.35,-0L0.35,-0.225C0.35,-0.255 0.343,-0.277 0.329,-0.292C0.315,-0.307 0.297,-0.314 0.274,-0.314C0.259,-0.314 0.245,-0.31 0.232,-0.302C0.219,-0.294 0.208,-0.283 0.2,-0.269C0.192,-0.255 0.188,-0.239 0.188,-0.22L0.188,-0L0.036,-0L0.036,-0.411L0.188,-0.411L0.188,-0.35C0.191,-0.361 0.2,-0.372 0.213,-0.383C0.226,-0.394 0.242,-0.404 0.261,-0.411C0.281,-0.419 0.302,-0.423 0.324,-0.422Z" style="fill:rgb(6,208,239);fill-rule:nonzero;"/>
                </g>
                <g transform="matrix(50,0,0,50,1087.299371,1939.974755)">
                    <path d="M0.218,0.012C0.178,0.012 0.144,0.002 0.114,-0.017C0.085,-0.037 0.062,-0.063 0.046,-0.096C0.03,-0.128 0.022,-0.165 0.022,-0.205C0.022,-0.245 0.03,-0.282 0.046,-0.314C0.062,-0.347 0.085,-0.373 0.114,-0.393C0.144,-0.413 0.178,-0.423 0.218,-0.422C0.244,-0.423 0.268,-0.418 0.288,-0.41C0.308,-0.402 0.325,-0.393 0.337,-0.381C0.35,-0.37 0.358,-0.36 0.361,-0.351L0.361,-0.688L0.512,-0.688L0.512,-0L0.362,-0L0.362,-0.067C0.356,-0.054 0.345,-0.042 0.331,-0.03C0.317,-0.018 0.3,-0.008 0.28,0C0.261,0.008 0.24,0.012 0.218,0.012ZM0.264,-0.107C0.283,-0.107 0.299,-0.112 0.314,-0.12C0.328,-0.128 0.34,-0.14 0.348,-0.155C0.356,-0.17 0.361,-0.186 0.361,-0.205C0.361,-0.224 0.356,-0.24 0.348,-0.255C0.34,-0.27 0.328,-0.282 0.314,-0.29C0.299,-0.299 0.283,-0.303 0.264,-0.303C0.247,-0.303 0.231,-0.299 0.217,-0.29C0.203,-0.282 0.192,-0.27 0.183,-0.255C0.175,-0.241 0.171,-0.224 0.171,-0.205C0.171,-0.186 0.175,-0.169 0.183,-0.155C0.192,-0.14 0.203,-0.128 0.217,-0.12C0.231,-0.111 0.247,-0.107 0.264,-0.107Z" style="fill:rgb(6,208,239);fill-rule:nonzero;"/>
                </g>
                <g transform="matrix(50,0,0,50,1115.224468,1939.974755)">
                </g>
            </g>
        </g>
    </g>
</svg>
